<?xml version="1.0" encoding="UTF-8" standalone="no"?>
<!DOCTYPE svg PUBLIC "-//W3C//DTD SVG 1.1//EN" "http://www.w3.org/Graphics/SVG/1.1/DTD/svg11.dtd">
<svg width="100%" height="100%" viewBox="0 0 237 237" version="1.1" xmlns="http://www.w3.org/2000/svg" xmlns:xlink="http://www.w3.org/1999/xlink" xml:space="preserve" xmlns:serif="http://www.serif.com/" style="fill-rule:evenodd;clip-rule:evenodd;stroke-linejoin:round;stroke-miterlimit:2;">
    <g id="アートボード1" transform="matrix(1,0,0,1,-118.11,-118.11)">
        <rect x="118.11" y="118.11" width="236.22" height="236.22" style="fill:none;"/>
        <g transform="matrix(0.766038,0,-0.319419,0.553249,130.72,153.021)">
            <g transform="matrix(3,0,0,3,94.4882,-330.709)">
                <rect x="11.811" y="153.543" width="70.866" height="70.866" style="fill:rgb(209,218,243);"/>
            </g>
            <g transform="matrix(1,0,0,1,118.11,118.11)">
                <rect x="11.811" y="153.543" width="70.866" height="70.866" style="fill:rgb(84,130,255);"/>
            </g>
            <g transform="matrix(1,0,0,1,188.976,47.2441)">
                <rect x="11.811" y="153.543" width="70.866" height="70.866" style="fill:rgb(84,130,255);"/>
            </g>
            <g transform="matrix(1,0,0,1,259.843,-23.622)">
                <rect x="11.811" y="153.543" width="70.866" height="70.866" style="fill:rgb(84,130,255);"/>
            </g>
            <g transform="matrix(1,0,0,1,259.843,118.11)">
                <rect x="11.811" y="153.543" width="70.866" height="70.866" style="fill:rgb(84,130,255);"/>
            </g>
            <g transform="matrix(1,0,0,1,118.11,-23.622)">
                <rect x="11.811" y="153.543" width="70.866" height="70.866" style="fill:rgb(84,130,255);"/>
            </g>
        </g>
        <g transform="matrix(0.903402,0,0,0.886801,108.168,110.636)">
            <circle cx="141.745" cy="106.312" r="94.501" style="fill:url(#_Radial1);"/>
        </g>
    </g>
    <defs>
        <radialGradient id="_Radial1" cx="0" cy="0" r="1" gradientUnits="userSpaceOnUse" gradientTransform="matrix(-82.8409,108.194,-108.194,-82.8409,177.165,54.3406)"><stop offset="0" style="stop-color:rgb(252,191,208);stop-opacity:0.91"/><stop offset="0.51" style="stop-color:rgb(254,49,132);stop-opacity:0.91"/><stop offset="1" style="stop-color:rgb(255,0,105);stop-opacity:0.91"/></radialGradient>
    </defs>
</svg>
